<svg xmlns="http://www.w3.org/2000/svg" xmlns:xlink="http://www.w3.org/1999/xlink" width="69" height="39" viewBox="0 0 69 39"><defs><path id="f6eya" d="M2185.72 220.8c-2.31-.86-2.73-3.48-.83-5.46 1.38.7 2.15 3.33.83 5.46zm-.43.89c-.88 2.37-3.75 3.25-6.26.97.54-1.05 3.2-2.83 6.26-.97zm-4.12-4.02c-1.84-1.31-1.67-4.16.8-5.46 1.38 1.5.65 4.22-.8 5.46zm-.68.72c-1.36 1.8-4.15 2.1-6.28-.9 1.04-1.03 3.97-1.63 6.28.9zm-2.77-5.04c-1.6-2.12-.02-4.5 2.37-4.98 1.06 2.4-1.29 4.6-2.37 4.98zm-.85.5c-1.93 1.5-5.1.46-5.76-2.69 2.3-.97 4.84.56 5.76 2.68zm-1.18-5.62c-.8-2.49 1.24-4.33 3.73-4.07.34 1.67-1.51 3.93-3.73 4.07zm-.96.22c-1.96.76-4.86-.5-4.73-4.24 2.86-.4 4.7 2.77 4.73 4.24zm.51-5.7c-.03-2.95 2.85-3.64 4.77-2.8-.08 1.13-1.86 3.29-4.77 2.8zm-.99-.08c-1.78.22-4.64-1.75-3.28-5.42 2.33.4 3.8 3.03 3.28 5.42zm7.56-6.59c-1.08 2.16-4.14 2.02-5.38 1.3.73-2.5 3.32-2.93 5.38-1.3zm-6.3.94c-3.14-.82-3.1-4.27-1.57-6.13 2.37 1.17 2.53 4.28 1.56 6.13zm9.15-4.08c-1.23 1.3-3.86 1.23-5.53-.35.72-1.38 3.53-2.57 5.53.35zm-6.31-.96c-2.78-1.83-1.72-4.87.3-6.31 2.15 2.03.87 5.33-.3 6.31zm45.9 22.79c1.88 1.98 1.46 4.61-.83 5.47-1.31-2.13-.55-4.77.82-5.47zm5.8 7.34c-2.48 2.29-5.33 1.4-6.2-.98 3.03-1.86 5.66-.07 6.2.98zm-2.92-10.48c2.46 1.3 2.62 4.16.8 5.47-1.44-1.24-2.16-3.97-.8-5.47zm7.7 5.3c-2.11 3-4.88 2.7-6.23.9 2.3-2.54 5.2-1.94 6.23-.9zm-5.83-9.15c2.37.47 3.94 2.86 2.34 5-1.07-.38-3.4-2.6-2.34-5zm8.9 2.8c-.66 3.15-3.8 4.2-5.7 2.69.9-2.13 3.41-3.67 5.7-2.69zm-8.23-7.02c2.47-.27 4.47 1.59 3.69 4.07-2.2-.13-4.04-2.4-3.7-4.07zm9.33.05c.12 3.75-2.75 5.01-4.69 4.24.03-1.47 1.86-4.64 4.7-4.24zm-9.92-4.27c1.9-.84 4.75-.16 4.73 2.8-2.9.5-4.65-1.67-4.73-2.8zm8.95-2.72c1.36 3.69-1.48 5.67-3.24 5.44-.52-2.4.94-5.03 3.24-5.44zm-5.4.13c-1.23.73-4.26.88-5.33-1.29 2.04-1.64 4.6-1.21 5.33 1.3zm2.47-6.5c1.51 1.87 1.55 5.33-1.56 6.15-.96-1.86-.8-4.97 1.56-6.15zm-5.15 1.7c-1.65 1.59-4.26 1.66-5.48.35 1.98-2.92 4.77-1.73 5.48-.35zm.47-6.94c2 1.45 3.06 4.5.3 6.33-1.15-.98-2.43-4.3-.3-6.33z"/></defs><g><g opacity=".3" transform="translate(-2170 -185)"><use fill="#080808" xlink:href="#f6eya"/></g></g></svg>